<svg width="25" height="26" viewBox="0 0 25 26" fill="none" xmlns="http://www.w3.org/2000/svg">
<path d="M21.2918 2.97656H2.8918C2.4493 2.97656 2.0918 3.33406 2.0918 3.77656V22.1766C2.0918 22.6191 2.4493 22.9766 2.8918 22.9766H21.2918C21.7343 22.9766 22.0918 22.6191 22.0918 22.1766V3.77656C22.0918 3.33406 21.7343 2.97656 21.2918 2.97656ZM20.4918 21.3766H15.8893V15.2316H18.4893L18.8793 12.2141H15.8893V10.2866C15.8893 9.41156 16.1318 8.81656 17.3843 8.81656H18.9818V6.11656C18.7043 6.07906 17.7568 5.99656 16.6518 5.99656C14.3468 5.99656 12.7693 7.40406 12.7693 9.98656V12.2116H10.1643V15.2291H12.7718V21.3766H3.6918V4.57656H20.4918V21.3766Z" fill="#F8FCFE"/>
<path d="M2.0918 2.91156H2.0268V2.97656V22.9766V23.0416H2.0918H22.0918H22.1568V22.9766V2.97656V2.91156H22.0918H2.0918ZM0.202759 1.08752H24.0728V24.9575H0.202759V1.08752ZM2.1568 22.9116V3.04156H22.0268V22.9116H2.1568Z" stroke="#C4CACC" stroke-width="0.13"/>
</svg>
