<svg width="25" height="26" viewBox="0 0 25 26" fill="none" xmlns="http://www.w3.org/2000/svg">
<path d="M19.8571 2.97656H4.14286C2.95982 2.97656 2 3.93638 2 5.11942V20.8337C2 22.0167 2.95982 22.9766 4.14286 22.9766H19.8571C21.0402 22.9766 22 22.0167 22 20.8337V5.11942C22 3.93638 21.0402 2.97656 19.8571 2.97656ZM2.95089 11.7801H2.9375C2.94196 11.7757 2.94643 11.7667 2.95089 11.7623V11.7801ZM6.33036 15.8248H4.85714V10.1194H6.33036V15.8248ZM11.3839 15.8248H10.1027V11.9676L9.58482 15.8248H8.66518L8.12054 12.0525V15.8248H6.82589V10.1194H8.73661C8.88393 11.0033 9.00446 11.9007 9.125 12.7935L9.46429 10.1194H11.3839V15.8248ZM11.8929 15.8248V10.1194H12.9911C13.7768 10.1194 14.9866 10.048 15.1786 11.0525C15.2545 11.3917 15.2411 11.7801 15.2411 12.1417C15.2411 16.0926 15.7366 15.8292 11.8929 15.8248ZM19.0759 14.5212C19.0759 15.2221 18.9688 15.9007 18.0848 15.9007C17.683 15.9007 17.4062 15.7667 17.1518 15.4632L17.067 15.8248H15.7366V10.1194H17.1518V11.981C17.4196 11.6908 17.6875 11.5703 18.0848 11.5703C19.0402 11.5703 19.0759 12.1417 19.0759 12.9141V14.5212ZM13.8304 11.8114C13.8304 11.3783 13.9018 11.0971 13.3705 11.0971V14.8337C13.9152 14.8471 13.8304 14.4453 13.8304 14.0123V11.8114ZM17.6473 12.9766C17.6473 12.7355 17.6964 12.4096 17.3705 12.4096C17.1027 12.4096 17.1518 12.8069 17.1518 12.9766C17.1518 13.0033 17.1027 14.7444 17.2009 14.9721C17.2366 15.0435 17.2991 15.0792 17.3705 15.0792C17.7188 15.0792 17.6473 14.6775 17.6473 14.4364V12.9766Z" fill="#F8FCFE"/>
</svg>
