<svg width="25" height="26" viewBox="0 0 25 26" fill="none" xmlns="http://www.w3.org/2000/svg">
<path d="M11.9973 7.8456C9.15795 7.8456 6.86644 10.1371 6.86644 12.9766C6.86644 15.816 9.15795 18.1075 11.9973 18.1075C14.8367 18.1075 17.1282 15.816 17.1282 12.9766C17.1282 10.1371 14.8367 7.8456 11.9973 7.8456ZM11.9973 16.3113C10.1611 16.3113 8.66262 14.8128 8.66262 12.9766C8.66262 11.1403 10.1611 9.64181 11.9973 9.64181C13.8335 9.64181 15.332 11.1403 15.332 12.9766C15.332 14.8128 13.8335 16.3113 11.9973 16.3113ZM17.3383 6.43965C16.6754 6.43965 16.14 6.97501 16.14 7.63796C16.14 8.3009 16.6754 8.83627 17.3383 8.83627C18.0013 8.83627 18.5366 8.30341 18.5366 7.63796C18.5368 7.48054 18.5059 7.32462 18.4458 7.17915C18.3856 7.03367 18.2974 6.90149 18.1861 6.79018C18.0748 6.67887 17.9426 6.59061 17.7971 6.53046C17.6516 6.47031 17.4957 6.43945 17.3383 6.43965ZM21.9989 12.9766C21.9989 11.5956 22.0114 10.2272 21.9338 8.84877C21.8563 7.24769 21.4911 5.82673 20.3203 4.65594C19.147 3.48265 17.7286 3.1199 16.1275 3.04235C14.7466 2.9648 13.3782 2.97731 11.9998 2.97731C10.6189 2.97731 9.25051 2.9648 7.8721 3.04235C6.27105 3.1199 4.85012 3.48515 3.67935 4.65594C2.50608 5.82923 2.14334 7.24769 2.06579 8.84877C1.98824 10.2297 2.00074 11.5981 2.00074 12.9766C2.00074 14.355 1.98824 15.7259 2.06579 17.1044C2.14334 18.7054 2.50858 20.1264 3.67935 21.2972C4.85262 22.4705 6.27105 22.8332 7.8721 22.9108C9.25301 22.9883 10.6214 22.9758 11.9998 22.9758C13.3807 22.9758 14.7491 22.9883 16.1275 22.9108C17.7286 22.8332 19.1495 22.468 20.3203 21.2972C21.4936 20.1239 21.8563 18.7054 21.9338 17.1044C22.0139 15.7259 21.9989 14.3575 21.9989 12.9766ZM19.7974 18.8755C19.6148 19.3309 19.3947 19.6711 19.0419 20.0213C18.6892 20.3741 18.3515 20.5942 17.8962 20.7768C16.5803 21.2997 13.4558 21.1821 11.9973 21.1821C10.5389 21.1821 7.4118 21.2997 6.09594 20.7793C5.64064 20.5967 5.30041 20.3766 4.95018 20.0238C4.59745 19.6711 4.37731 19.3334 4.19469 18.878C3.67434 17.5597 3.79192 14.435 3.79192 12.9766C3.79192 11.5181 3.67434 8.39096 4.19469 7.07508C4.37731 6.61977 4.59745 6.27954 4.95018 5.9293C5.30291 5.57906 5.64064 5.35641 6.09594 5.17379C7.4118 4.65344 10.5389 4.77102 11.9973 4.77102C13.4558 4.77102 16.5828 4.65344 17.8987 5.17379C18.354 5.35641 18.6942 5.57656 19.0444 5.9293C19.3972 6.28204 19.6173 6.61977 19.7999 7.07508C20.3203 8.39096 20.2027 11.5181 20.2027 12.9766C20.2027 14.435 20.3203 17.5597 19.7974 18.8755Z" fill="#F8FCFE"/>
</svg>
