<svg width="25" height="26" viewBox="0 0 25 26" fill="none" xmlns="http://www.w3.org/2000/svg">
<path d="M22.0125 2.97656H3.6125C3.17 2.97656 2.8125 3.33406 2.8125 3.77656V22.1766C2.8125 22.6191 3.17 22.9766 3.6125 22.9766H22.0125C22.455 22.9766 22.8125 22.6191 22.8125 22.1766V3.77656C22.8125 3.33406 22.455 2.97656 22.0125 2.97656ZM16.055 13.1966L11.07 17.1166C10.885 17.2616 10.6125 17.1316 10.6125 16.8966V9.05906C10.6125 8.82406 10.885 8.69156 11.07 8.83906L16.055 12.7566C16.0883 12.7828 16.1152 12.8162 16.1337 12.8543C16.1522 12.8924 16.1618 12.9342 16.1618 12.9766C16.1618 13.0189 16.1522 13.0607 16.1337 13.0988C16.1152 13.1369 16.0883 13.1704 16.055 13.1966Z" fill="#F8FCFE"/>
</svg>
