<svg width="25" height="26" viewBox="0 0 25 26" fill="none" xmlns="http://www.w3.org/2000/svg">
<path d="M2.18384 2.91156H2.11884V2.97656V22.9766V23.0416H2.18384H22.1838H22.2488V22.9766V2.97656V2.91156H22.1838H2.18384ZM0.2948 1.08752H24.1648V24.9575H0.2948V1.08752ZM2.24884 22.9116V3.04156H22.1188V22.9116H2.24884Z" stroke="#C4CACC" stroke-width="0.13"/>
<path d="M21.3838 2.97656H2.98384C2.54134 2.97656 2.18384 3.33406 2.18384 3.77656V22.1766C2.18384 22.6191 2.54134 22.9766 2.98384 22.9766H21.3838C21.8263 22.9766 22.1838 22.6191 22.1838 22.1766V3.77656C22.1838 3.33406 21.8263 2.97656 21.3838 2.97656ZM17.5663 10.2191C17.5738 10.3366 17.5738 10.4591 17.5738 10.5791C17.5738 14.2491 14.7788 18.4766 9.67134 18.4766C8.09634 18.4766 6.63634 18.0191 5.40634 17.2316C5.63134 17.2566 5.84634 17.2666 6.07634 17.2666C7.37634 17.2666 8.57134 16.8266 9.52384 16.0816C8.30384 16.0566 7.27884 15.2566 6.92884 14.1566C7.35634 14.2191 7.74134 14.2191 8.18134 14.1066C7.55315 13.9789 6.98853 13.6378 6.58338 13.141C6.17823 12.6443 5.95755 12.0226 5.95884 11.3816V11.3466C6.32634 11.5541 6.75884 11.6816 7.21134 11.6991C6.83094 11.4455 6.51898 11.1021 6.30312 10.6991C6.08725 10.2962 5.97415 9.84619 5.97384 9.38906C5.97384 8.87156 6.10884 8.39906 6.35134 7.98906C7.04859 8.8474 7.91866 9.54942 8.905 10.0495C9.89133 10.5495 10.9719 10.8364 12.0763 10.8916C11.6838 9.00406 13.0938 7.47656 14.7888 7.47656C15.5888 7.47656 16.3088 7.81156 16.8163 8.35156C17.4438 8.23406 18.0438 7.99906 18.5788 7.68406C18.3713 8.32656 17.9363 8.86906 17.3588 9.21156C17.9188 9.15156 18.4588 8.99656 18.9588 8.77906C18.5813 9.33406 18.1088 9.82656 17.5663 10.2191Z" fill="#F8FCFE"/>
</svg>
